<?xml version="1.0" encoding="utf-8"?>
<!-- Generator: Adobe Illustrator 24.0.3, SVG Export Plug-In . SVG Version: 6.00 Build 0)  -->
<svg version="1.1" id="图层_1" xmlns="http://www.w3.org/2000/svg" xmlns:xlink="http://www.w3.org/1999/xlink" x="0px" y="0px"
	 viewBox="0 0 1920 1080" style="enable-background:new 0 0 1920 1080;" xml:space="preserve">
<style type="text/css">
	.st0{fill:#1924F2;stroke:#FFFFFF;stroke-miterlimit:10;}
</style>
<path class="st0" d="M337.5,347.5c13,12.6,33.6,10.2,35,10c35.5-4.6,39.8-50.6,74-79c39.8-33,112.8-36.2,159-4
	c76.2,53.2,61.3,190.2,10,229c-7.5,5.7-9.3,5.8-94,30c-43.2,12.3-64.8,18.5-75,25c-48.3,30.9-36.7,71.1-81,97
	c-31.6,18.5-79.4,22.5-99,0c-17.7-20.2-9.3-58.1-1-78c13.3-32.1,35.6-39.7,32-56c-3.5-15.7-29.1-9.5-53-33c-1.4-1.3-23.7-24-25-56
	c-0.8-21.5,8.8-22.6,14-50c7.3-38.4-8.9-49.9-1-91c3.5-18,6.8-35.5,20-42c20-9.9,56.6,8.9,70,36C335.1,311,321.4,331.9,337.5,347.5z
	"/>
<path class="st0" d="M490.5,824.5c5.5-7.9,9.4-13.7,9.9-14.5c10.4-15.4,48.5-62.8,68.1-79.5c42.6-36.6,88.4-5.8,137-23
	c115.4-40.8,55-285,186-358c76.1-42.5,168.8-3.3,186,4c116.2,49.2,149,171.3,158,205c20.6,76.7,29.2,216.2-50,281
	c-62,50.7-107.2-1.9-217,38c-153.9,56-186.8,203.8-283,189c-37.2-5.7-35.6-28.4-100-45c-73.1-18.9-111.7,0.8-133-27
	c-20.5-26.7-7-73.9-1-95c5.2-18,15.5-41.5,25-55C477.4,843.2,482.9,835.5,490.5,824.5z"/>
<path class="st0" d="M1160.5,255.5c18.1,24.5,12.8,63.5,25,86c22.6,41.6,122,57.9,153,16c15.6-21.2,13.5-56.8-1-80
	c-14.9-23.9-32.3-17.9-46-39c-25.3-39.1,15.9-88.4-6-109c-14.7-13.8-50.4-7.9-61,9c-11.4,18.1,11.1,40.6,0,55
	c-14,18.1-59.4-5.1-72,14c-6.5,9.8-1.8,27.1-1,30C1154.1,247.2,1159,253.5,1160.5,255.5z"/>
<path class="st0" d="M1394.5,507.5c27.3-22.3,78.7-40.9,122-24c62.5,24.4,90.4,116.1,64,152c-21.7,29.5-68.6,6.1-87,32
	c-34.7,49,109.7,164.7,76,235c-19.3,40.3-91.9,54.4-145,36c-62.7-21.7-90.9-86.1-95-131c-5.4-59.6,32.7-74,22-130
	c-11.3-59.4-62.2-85.2-49-110c8.4-15.9,31.7-10.1,72-42C1386,516.4,1386.6,513.9,1394.5,507.5z"/>
<path class="st0" d="M1072.5,969.5c-99,9-199,89.4-198,163c0.9,67.3,85.5,75.1,96,161c8.9,72.5-45.9,111.5-21,169
	c11.9,27.5,28.3,27.5,70,62c17.1,14.1,146.6,121.1,149,249c0.9,45.8-14.8,85.7,0,93c12.9,6.4,37.1-18,45-26
	c85-85.8,281.4-612.2,40-810C1235.5,1015.8,1164.2,961.1,1072.5,969.5z"/>
<path class="st0" d="M1535.5,1071.5c91.4-76.3,113.3-117,164-114c23.6,1.4,41.4,11.5,51,17c59.2,33.7,53.7,89.6,100,109
	c38.3,16.1,58.7-15.2,86,0c59.8,33.2,45.6,229.1-28,260c-36.2,15.2-72.5-15.4-98,8c-24.1,22.1-1.6,58.7-27,86
	c-21.5,23.1-66.8,28-97,12c-47.9-25.5-22.8-85.2-69-123c-52.7-43.1-118.6,7.6-168-38c-29.1-26.9-36.7-72.7-29-106
	C1429.6,1143.2,1456,1137.9,1535.5,1071.5z"/>
<path class="st0" d="M1535.9,5.6c91.4-76.3,113.3-117,164-114c23.6,1.4,41.4,11.5,51,17c59.2,33.7,53.7,89.6,100,109
	c38.3,16.1,58.7-15.2,86,0c59.8,33.2,45.6,229.1-28,260c-36.2,15.2-72.5-15.4-98,8c-24.1,22.1-1.6,58.7-27,86
	c-21.5,23.1-66.8,28-97,12c-47.9-25.5-22.8-85.2-69-123c-52.7-43.1-118.6,7.6-168-38c-29.1-26.9-36.7-72.7-29-106
	C1430,77.3,1456.5,72,1535.9,5.6z"/>
<path class="st0" d="M1718.5,541.5c-17.9,17.6-60.6,59.6-61,116c-0.4,57.9,44.1,80.4,216,235c86.9,78.2,113.7,106.8,136,97
	c30.1-13.1,12.1-78.3,22-182c19.3-201.7,119-285.5,77-335c-23-27.1-78-19.1-188-3C1826.7,483.2,1768.2,492.6,1718.5,541.5z"/>
<path class="st0" d="M-221,535.1c-17.9,17.6-60.6,59.6-61,116c-0.4,57.9,44.1,80.4,216,235c86.9,78.2,113.7,106.8,136,97
	c30.1-13.1,12.1-78.3,22-182c19.3-201.7,119-285.5,77-335c-23-27.1-78-19.1-188-3C-112.8,476.8-171.4,486.2-221,535.1z"/>
<path class="st0" d="M64.5,18.5c9.5,49.3,57.3,86.3,100,100c78.3,25.1,116.4-35.9,188-6c47.6,19.9,56.7,57.7,102,58
	c26.1,0.2,29.9-12.3,72-24c62.8-17.4,82.7,2.4,111-12c54.7-27.9,78.9-152.9,27-224c-29.4-40.4-78-49.5-174-66
	c-149.4-25.7-251.3-43.3-337,17C146.4-133.5,48.8-62.9,64.5,18.5z"/>
<path class="st0" d="M977.6-174.7c-99,3.4-199,33.9-198,61.8c0.9,25.5,85.5,28.5,96,61c8.9,27.5-45.9,42.2-21,64.1
	c11.9,10.4,28.3,10.4,70,23.5c3.6,1.1,5.4,1.7,6,1.9c26,10.8,21.9,44.3,38.9,72.9c0,0,26.9,45.4,98.6,51.8
	c28.9,2.6,50.4-6.8,50.4-6.8s0,0,0.1,0c20.9-9.2,183.2-123.6,151.9-221.1c-11-34.2-44.2-64.9-111.9-86
	C1140.6-157.1,1069.3-177.8,977.6-174.7z"/>
</svg>
